# xmcd
#
# Track frame offsets: 
#        150
#        13133
#        25095
#        35375
#        47073
#        55926
#        65010
#        75273
#        83219
#        92495
#        102417
#        113063
#        122900
#        132020
#        142255
#        151942
#        164204
#        174557
#        184019
#        194301
#        204450
#        215931
#        228217
#        237676
#
# Disc length: 3328 seconds
#
# Revision: 2
# Processed by: cddbd v1.5.2PL0 Copyright (c) Steve Scherf et al.
# Submitted via: ExactAudioCopy v1.0b3
#
DISCID=550cfe18
DTITLE=Various Artist - Hillbilly Bop, Boogie and The Honky Tonk Blues Vol 4 19
DTITLE=56-1957 [Disc 1]
DYEAR=2010
DGENRE=Hillbilly
TTITLE0=Ray, Chuck and His Gang - I May Not Be Able But I'm Willin' To T
TTITLE0=ry
TTITLE1=Holloway, Alden and His Prairie Ramblers - Woodpecker Love
TTITLE2=Walker, Sandy and His Country Boys - Beatin' 'Round The Bush
TTITLE3=Morris, Jack - Cooing To The Wrong Pigeon
TTITLE4=Knight, Whitey - Kenny Cox and His Westerners - From An Angel To
TTITLE4=A Devil
TTITLE5=Counts, Roy - I'm Tired
TTITLE6=McGown, Gene - Knee Deep In The Blues
TTITLE7=Macklin, Billy - Knock On Wood
TTITLE8=Tucker, Jack and His Okla. Playboys - Let Me Practice With You
TTITLE9=McGeary, Jody and His Southland Playboys - That's When You're Go
TTITLE9=nna Be Sorry
TTITLE10=Ward, Dusty - If You Two Time Me
TTITLE11=Rice, Glen - What Makes My Woman So Mean
TTITLE12=Morris, Jack -  Music By The Night Owls - Glad I'm Lookin' Ba
TTITLE12=ck On You
TTITLE13=DeChaine, Johnny and Cara Sisters - Come On Home
TTITLE14=Ramblin' Everett and Swannie River - Forever In Dreams
TTITLE15=Miller, Dick and Sonny Bingo with The Southern Ramblers - Haven
TTITLE15='t I Seen You Somewhere Before
TTITLE16=Brock, Bill - Let's Make New Memories
TTITLE17=Nettles Sisters, The with Rodeo Tune Wranglers - Real Gone Ji
TTITLE17=ve
TTITLE18=Hobbs, Bud and His Trail Herders - You're Just What The Doctor 
TTITLE18=Ordered
TTITLE19=Morris, Jack and His Night Owls - White Line
TTITLE20=Knight, Whitey with The Whitey Knight Orch. - Another Brew Ba
TTITLE20=rtender
TTITLE21=Gittar, Johnny and His Targits - San Antonio Boogie
TTITLE22=Brown, Phil with Bill Wood's Band - You're A Luxury
TTITLE23=Brown, Kenny and The Arkansas Ramblers - Throw A Little Wood On
TTITLE23=The Fire
EXTD=
EXTT0=
EXTT1=
EXTT2=
EXTT3=
EXTT4=
EXTT5=
EXTT6=
EXTT7=
EXTT8=
EXTT9=
EXTT10=
EXTT11=
EXTT12=
EXTT13=
EXTT14=
EXTT15=
EXTT16=
EXTT17=
EXTT18=
EXTT19=
EXTT20=
EXTT21=
EXTT22=
EXTT23=
PLAYORDER=
